<svg xmlns="http://www.w3.org/2000/svg"
 width="300.000000pt" height="241.000000pt" viewBox="0 0 300.000000 241.000000"
 preserveAspectRatio="xMidYMid meet">
<g transform="translate(0.000000,241.000000) scale(0.100000,-0.100000)"
fill="currentColor">
<path d="M1469 2378 c-7 -13 -21 -39 -32 -58 -82 -147 -206 -381 -215 -409
-27 -78 -8 -170 62 -295 l39 -70 22 67 c13 37 62 139 110 227 131 242 142 280
109 391 -16 53 -70 169 -79 169 -2 0 -10 -10 -16 -22z m42 -69 c29 -57 49
-127 49 -171 0 -51 -24 -109 -115 -273 -30 -55 -71 -133 -90 -172 -19 -40 -39
-73 -44 -73 -12 0 -58 99 -72 155 -21 82 -2 147 87 300 23 39 62 111 88 160
45 85 64 115 72 115 2 0 13 -19 25 -41z"/>
<path d="M1628 2053 c-6 -43 -33 -101 -142 -300 -89 -164 -106 -224 -89 -308
15 -68 81 -212 92 -199 11 11 188 336 236 434 34 67 37 78 33 144 -3 61 -10
84 -52 169 -27 53 -55 97 -61 97 -7 0 -15 -17 -17 -37z m64 -95 c29 -56 33
-73 33 -143 0 -78 -1 -82 -56 -185 -31 -58 -78 -145 -104 -195 -27 -49 -56
-100 -66 -112 l-17 -23 -20 43 c-70 150 -58 207 110 513 24 44 52 98 63 121
11 24 21 43 22 43 2 0 17 -28 35 -62z"/>
<path d="M510 1721 l0 -99 43 -6 c51 -8 73 -23 87 -60 6 -17 10 -195 10 -492
0 -516 -1 -522 -60 -543 -18 -6 -44 -11 -56 -11 -24 0 -24 0 -24 -127 l0 -128
-113 -38 c-187 -64 -429 -191 -389 -205 6 -2 69 8 139 22 276 54 474 82 763
108 197 18 1012 18 1220 0 285 -24 640 -73 809 -111 41 -9 59 -1 45 20 -11 19
-262 135 -372 173 -113 39 -157 46 -132 22 8 -8 31 -19 50 -24 107 -32 337
-128 328 -138 -2 -1 -91 10 -198 26 -413 59 -682 78 -1150 77 -486 0 -812 -25
-1217 -95 -90 -15 -163 -26 -163 -24 0 8 213 102 288 127 48 16 87 35 92 45
20 37 306 104 583 135 l57 6 0 65 c0 62 -1 64 -25 64 -14 0 -41 7 -61 15 -62
26 -65 42 -62 413 3 325 3 327 24 330 18 3 49 -44 214 -325 106 -180 203 -345
214 -365 12 -21 29 -38 39 -38 9 0 17 3 17 8 0 4 94 167 209 362 181 307 212
355 232 355 l24 0 3 -316 c1 -174 -1 -333 -6 -354 -9 -47 -44 -74 -100 -82
l-42 -6 0 -63 0 -64 38 0 c113 0 497 -69 585 -105 16 -7 17 3 17 114 0 120 0
121 -24 121 -43 0 -86 22 -101 51 -22 42 -22 966 0 1008 15 29 58 51 101 51
24 0 24 2 24 100 l0 100 -297 -2 -298 -3 -70 -135 c-282 -542 -305 -582 -317
-578 -14 5 -148 253 -331 616 l-52 102 -297 0 -298 0 0 -99z m568 52 c19 -17
43 -61 215 -393 145 -281 163 -310 197 -310 23 0 53 35 93 110 88 166 134 253
187 355 100 193 121 230 138 243 13 10 74 12 259 11 134 -2 247 -5 252 -8 9
-6 15 -47 13 -92 -2 -21 -12 -32 -49 -50 -84 -42 -81 -23 -89 -539 -9 -562 -7
-570 99 -615 l38 -16 -2 -79 c-2 -72 -4 -80 -21 -80 -11 0 -17 3 -15 7 3 5 -7
9 -21 9 -15 1 -58 9 -97 17 -88 19 -173 32 -297 48 -89 10 -97 13 -103 36 -8
32 -1 40 51 64 25 12 52 35 65 55 20 33 21 45 20 376 -1 375 -2 378 -61 378
-42 0 -54 -17 -205 -275 -185 -317 -239 -406 -250 -415 -11 -9 -37 31 -235
370 -182 312 -203 338 -254 310 -14 -7 -28 -20 -31 -29 -2 -9 -5 -160 -6 -336
-1 -265 1 -326 13 -355 19 -42 52 -74 93 -87 25 -8 31 -16 33 -45 3 -40 0 -41
-93 -53 -27 -3 -75 -10 -105 -15 -30 -5 -89 -14 -130 -21 -41 -6 -79 -14 -85
-17 -5 -4 -14 -7 -20 -8 -5 -1 -31 -8 -57 -15 -67 -18 -74 -9 -68 85 l5 76 45
22 c26 14 53 37 65 58 19 34 20 51 20 515 0 464 -1 481 -20 514 -12 21 -39 44
-68 58 l-47 24 0 59 c0 37 4 60 13 63 6 3 121 5 253 6 218 1 243 0 262 -16z"/>
<path d="M1329 390 c-156 -7 -185 -12 -173 -32 4 -6 27 -7 62 -3 31 4 182 7
336 6 248 0 279 2 262 15 -14 10 -49 14 -125 14 -58 0 -128 2 -156 4 -27 2
-120 1 -206 -4z"/>
</g>
</svg>
